<svg xmlns="http://www.w3.org/2000/svg">
<defs>
<symbol viewBox="0 0 32 32" id="cib-github"><path fill="currentColor" d="M16 .396c-8.839 0-16 7.167-16 16c0 7.073 4.584 13.068 10.937 15.183c.803.151 1.093-.344 1.093-.772c0-.38-.009-1.385-.015-2.719c-4.453.964-5.391-2.151-5.391-2.151c-.729-1.844-1.781-2.339-1.781-2.339c-1.448-.989.115-.968.115-.968c1.604.109 2.448 1.645 2.448 1.645c1.427 2.448 3.744 1.74 4.661 1.328c.14-1.031.557-1.74 1.011-2.135c-3.552-.401-7.287-1.776-7.287-7.907c0-1.751.62-3.177 1.645-4.297c-.177-.401-.719-2.031.141-4.235c0 0 1.339-.427 4.4 1.641a15.4 15.4 0 0 1 4-.541c1.36.009 2.719.187 4 .541c3.043-2.068 4.381-1.641 4.381-1.641c.859 2.204.317 3.833.161 4.235c1.015 1.12 1.635 2.547 1.635 4.297c0 6.145-3.74 7.5-7.296 7.891c.556.479 1.077 1.464 1.077 2.959c0 2.14-.02 3.864-.02 4.385c0 .416.28.916 1.104.755c6.4-2.093 10.979-8.093 10.979-15.156c0-8.833-7.161-16-16-16z"></path></symbol>
<symbol viewBox="0 0 512 512" id="fa6-solid-ban"><path fill="currentColor" d="M367.2 412.5L99.5 144.8C77.1 176.1 64 214.5 64 256c0 106 86 192 192 192c41.5 0 79.9-13.1 111.2-35.5m45.3-45.3C434.9 335.9 448 297.5 448 256c0-106-86-192-192-192c-41.5 0-79.9 13.1-111.2 35.5zM0 256a256 256 0 1 1 512 0a256 256 0 1 1-512 0"></path></symbol>
<symbol viewBox="0 0 448 512" id="fa6-solid-database"><path fill="currentColor" d="M448 80v48c0 44.2-100.3 80-224 80S0 172.2 0 128V80C0 35.8 100.3 0 224 0s224 35.8 224 80m-54.8 134.7c20.8-7.4 39.9-16.9 54.8-28.6V288c0 44.2-100.3 80-224 80S0 332.2 0 288V186.1c14.9 11.8 34 21.2 54.8 28.6C99.7 230.7 159.5 240 224 240s124.3-9.3 169.2-25.3M0 346.1c14.9 11.8 34 21.2 54.8 28.6C99.7 390.7 159.5 400 224 400s124.3-9.3 169.2-25.3c20.8-7.4 39.9-16.9 54.8-28.6V432c0 44.2-100.3 80-224 80S0 476.2 0 432z"></path></symbol>
<symbol viewBox="0 0 512 512" id="fa6-solid-microchip"><path fill="currentColor" d="M176 24c0-13.3-10.7-24-24-24s-24 10.7-24 24v40c-35.3 0-64 28.7-64 64H24c-13.3 0-24 10.7-24 24s10.7 24 24 24h40v56H24c-13.3 0-24 10.7-24 24s10.7 24 24 24h40v56H24c-13.3 0-24 10.7-24 24s10.7 24 24 24h40c0 35.3 28.7 64 64 64v40c0 13.3 10.7 24 24 24s24-10.7 24-24v-40h56v40c0 13.3 10.7 24 24 24s24-10.7 24-24v-40h56v40c0 13.3 10.7 24 24 24s24-10.7 24-24v-40c35.3 0 64-28.7 64-64h40c13.3 0 24-10.7 24-24s-10.7-24-24-24h-40v-56h40c13.3 0 24-10.7 24-24s-10.7-24-24-24h-40v-56h40c13.3 0 24-10.7 24-24s-10.7-24-24-24h-40c0-35.3-28.7-64-64-64V24c0-13.3-10.7-24-24-24s-24 10.7-24 24v40h-56V24c0-13.3-10.7-24-24-24s-24 10.7-24 24v40h-56zm-16 104h192c17.7 0 32 14.3 32 32v192c0 17.7-14.3 32-32 32H160c-17.7 0-32-14.3-32-32V160c0-17.7 14.3-32 32-32m192 32H160v192h192z"></path></symbol>
<symbol viewBox="0 0 320 512" id="fa6-solid-pause"><path fill="currentColor" d="M48 64C21.5 64 0 85.5 0 112v288c0 26.5 21.5 48 48 48h32c26.5 0 48-21.5 48-48V112c0-26.5-21.5-48-48-48zm192 0c-26.5 0-48 21.5-48 48v288c0 26.5 21.5 48 48 48h32c26.5 0 48-21.5 48-48V112c0-26.5-21.5-48-48-48z"></path></symbol>
<symbol viewBox="0 0 384 512" id="fa6-solid-play"><path fill="currentColor" d="M73 39c-14.8-9.1-33.4-9.4-48.5-.9S0 62.6 0 80v352c0 17.4 9.4 33.4 24.5 41.9S58.2 482 73 473l288-176c14.3-8.7 23-24.2 23-41s-8.7-32.2-23-41z"></path></symbol>
<symbol viewBox="0 0 512 512" id="fa6-solid-skull"><path fill="currentColor" d="M416 398.9c58.5-41.1 96-104.1 96-174.9C512 100.3 397.4 0 256 0S0 100.3 0 224c0 70.7 37.5 133.8 96 174.9V464c0 26.5 21.5 48 48 48h48v-48c0-8.8 7.2-16 16-16s16 7.2 16 16v48h64v-48c0-8.8 7.2-16 16-16s16 7.2 16 16v48h48c26.5 0 48-21.5 48-48zM96 256a64 64 0 1 1 128 0a64 64 0 1 1-128 0m256-64a64 64 0 1 1 0 128a64 64 0 1 1 0-128"></path></symbol>
<symbol viewBox="0 0 320 512" id="fa6-solid-sort"><path fill="currentColor" d="M137.4 41.4c12.5-12.5 32.8-12.5 45.3 0l128 128c9.2 9.2 11.9 22.9 6.9 34.9S301 224.1 288 224.1L32 224c-12.9 0-24.6-7.8-29.6-19.8s-2.2-25.7 6.9-34.9l128-128zm0 429.3l-128-128c-9.2-9.2-11.9-22.9-6.9-34.9S19.1 288 32.1 288h256c12.9 0 24.6 7.8 29.6 19.8s2.2 25.7-6.9 34.9l-128 128c-12.5 12.5-32.8 12.5-45.3 0z"></path></symbol>
<symbol viewBox="0 0 576 512" id="fa6-solid-terminal"><path fill="currentColor" d="M9.4 86.6c-12.5-12.5-12.5-32.7 0-45.2s32.8-12.5 45.3 0l192 192c12.5 12.5 12.5 32.8 0 45.3l-192 192c-12.5 12.5-32.8 12.5-45.3 0s-12.5-32.8 0-45.3L178.7 256zM256 416h288c17.7 0 32 14.3 32 32s-14.3 32-32 32H256c-17.7 0-32-14.3-32-32s14.3-32 32-32"></path></symbol>
<symbol viewBox="0 0 448 512" id="fa6-solid-user"><path fill="currentColor" d="M224 256a128 128 0 1 0 0-256a128 128 0 1 0 0 256m-45.7 48C79.8 304 0 383.8 0 482.3C0 498.7 13.3 512 29.7 512h388.6c16.4 0 29.7-13.3 29.7-29.7c0-98.5-79.8-178.3-178.3-178.3z"></path></symbol>
<symbol viewBox="0 0 448 512" id="fa6-solid-bars"><path fill="currentColor" d="M0 96c0-17.7 14.3-32 32-32h384c17.7 0 32 14.3 32 32s-14.3 32-32 32H32c-17.7 0-32-14.3-32-32m0 160c0-17.7 14.3-32 32-32h384c17.7 0 32 14.3 32 32s-14.3 32-32 32H32c-17.7 0-32-14.3-32-32m448 160c0 17.7-14.3 32-32 32H32c-17.7 0-32-14.3-32-32s14.3-32 32-32h384c17.7 0 32 14.3 32 32"></path></symbol>
</defs>
</svg>